<svg width="701" height="701" viewBox="0 0 701 701" fill="none" xmlns="http://www.w3.org/2000/svg" style="">
<path d="M701 350.5C701 544.076 544.076 701 350.5 701C156.924 701 0 544.076 0 350.5C0 156.924 156.924 0 350.5 0C544.076 0 701 156.924 701 350.5Z" fill="url(#paint0_linear)" class="vRQVzEZN_0"></path>
<path d="M309.103 330.419L309.052 330.163L308.974 329.913C296.843 290.967 262.656 274.416 232.512 280.876C223.016 282.277 214.454 286.987 207.434 292.73L207.355 292.795L207.278 292.863C189.16 308.968 181.494 337.616 191.957 378.242C197.821 401.111 208.108 421.088 219.462 440.098C201.243 461.872 188.8 485.419 188.8 509V509.061L188.801 509.122C189.45 535.729 203.746 552.814 221.965 560.001C239.87 567.064 261.407 564.492 276.682 552.538L276.703 552.521L276.723 552.504C287.308 544.037 293.032 529.699 291.8 510.636V510.633V510.629V510.624V510.619V510.615V510.61V510.605V510.601V510.596V510.591V510.586V510.581V510.576V510.572V510.567V510.562V510.557V510.552V510.547V510.542V510.536V510.531V510.526V510.521V510.516V510.511V510.505V510.5V510.495V510.49V510.484V510.479V510.474V510.468V510.463V510.457V510.452V510.446V510.441V510.435V510.43V510.424V510.419V510.413V510.407V510.402V510.396V510.39V510.385V510.379V510.373V510.367V510.361V510.356V510.35V510.344V510.338V510.332V510.326V510.32V510.314V510.308V510.302V510.296V510.29V510.284V510.278V510.271V510.265V510.259V510.253V510.247V510.24V510.234V510.228V510.221V510.215V510.209V510.202V510.196V510.189V510.183V510.176V510.17V510.163V510.157V510.15V510.144V510.137V510.131V510.124V510.117V510.111V510.104V510.097V510.09V510.084V510.077V510.07V510.063V510.056V510.049V510.043V510.036V510.029V510.022V510.015V510.008V510.001V509.994V509.987V509.98V509.973V509.966V509.958V509.951V509.944V509.937V509.93V509.923V509.915V509.908V509.901V509.893V509.886V509.879V509.872V509.864V509.857V509.849V509.842V509.835V509.827V509.82V509.812V509.805V509.797V509.79V509.782V509.774V509.767V509.759V509.752V509.744V509.736V509.729V509.721V509.713V509.705V509.698V509.69V509.682V509.674V509.666V509.659V509.651V509.643V509.635V509.627V509.619V509.611V509.603V509.595V509.587V509.579V509.571V509.563V509.555V509.547V509.539V509.531V509.523V509.515V509.506V509.498V509.49V509.482V509.474V509.465V509.457V509.449V509.441V509.432V509.424V509.416V509.407V509.399V509.391V509.382V509.374V509.365V509.357V509.348V509.34V509.331V509.323V509.314V509.306V509.297V509.289V509.28V509.272V509.263V509.254V509.246V509.237V509.229V509.22V509.211V509.202V509.194V509.185V509.176V509.168V509.159V509.15V509.141V509.132V509.124V509.115V509.106V509.097V509.088V509.079V509.07V509.061V509.052V509.044V509.035V509.026V509.017V509.008V508.999V508.99V508.981V508.972V508.962V508.953V508.944V508.935V508.926V508.917V508.908V508.899V508.89V508.88V508.871V508.862V508.853V508.844V508.834V508.825V508.816V508.807V508.797V508.788V508.779V508.769V508.76V508.751V508.741V508.732V508.723V508.713V508.704V508.694V508.685V508.676V508.666V508.657V508.647V508.638V508.628V508.619V508.609V508.6V508.59V508.581V508.571V508.562V508.552V508.543V508.533V508.523V508.514V508.504V508.495V508.485V508.475V508.466V508.456V508.446V508.437V508.427V508.417V508.408V508.398V508.388V508.378V508.369V508.359V508.349V508.339V508.329V508.32V508.31V508.3V508.29V508.28V508.271V508.261V508.251V508.241V508.231V508.221V508.211V508.201V508.192V508.182V508.172V508.162V508.152V508.142V508.132V508.122V508.112V508.102V508.092V508.082V508.072V508.062V508.052V508.042V508.032V508.022V508.012V508.002V507.992V507.982V507.972V507.962V507.951V507.941V507.931V507.921V507.911V507.901V507.891V507.881V507.87V507.86V507.85V507.84V507.83V507.82V507.809V507.799V507.789V507.779V507.769V507.758V507.748V507.738V507.728V507.718V507.707V507.697V507.687V507.677V507.666V507.656V507.646V507.635V507.625V507.615V507.605V507.594V507.584V507.574V507.563V507.553V507.543V507.532V507.522V507.512V507.501V507.491V507.481V507.47V507.46V507.45V507.439V507.429V507.418V507.408V507.398V507.387V507.377V507.366V507.356V507.346V507.335V507.325V507.314V507.304V507.294V507.283V507.273V507.262V507.252V507.241V507.231V507.22V507.21V507.2V507.189V507.179V507.168V507.158V507.147V507.137V507.126V507.116V507.105V507.095V507.084V507.074V507.063V507.053V507.042V507.032V507.021V507.011V507V506.99V506.979V506.969V506.958V506.948V506.937V506.927V506.916V506.906V506.895V506.885V506.874V506.864V506.853V506.842V506.832V506.821V506.811V506.8V506.79V506.779V506.769V506.758V506.748V506.737V506.727V506.716V506.705V506.695V506.684V506.674V506.663V506.653V506.642V506.632V506.621V506.611V506.6V506.323L291.769 506.048C290.171 491.66 284.606 477.974 277.885 465.066C273.572 456.784 268.604 448.511 263.815 440.537C261.981 437.483 260.172 434.472 258.438 431.522C277.343 415.684 299.34 398.338 334.098 384.151C331.637 418.436 330.498 450.957 331.718 478.025L331.718 478.037L331.719 478.05C332.331 490.302 334.928 511.801 342.366 529.809C346.087 538.817 351.176 547.342 358.19 553.323C365.342 559.423 374.349 562.732 385.255 561.371C400.526 559.946 410.684 549.487 418.376 541.202L418.4 541.177L418.423 541.151C427.231 531.4 435.97 517.438 444.444 501.886C452.948 486.277 461.347 468.758 469.406 451.74C470.345 449.757 471.28 447.781 472.209 445.816C479.281 430.86 486.062 416.521 492.465 404.273C499.784 390.275 506.315 379.604 511.89 373.893L511.934 373.848L511.976 373.802C514.48 371.106 516.051 368.004 516.124 364.756C516.199 361.396 514.63 358.457 512.045 356.68C506.853 353.11 499.834 355.09 495.425 360.655C488.466 369.052 481.185 381.6 473.77 395.916C467.288 408.429 460.56 422.579 453.735 436.934C452.7 439.111 451.662 441.293 450.623 443.475C434.714 476.878 418.563 509.794 403.265 527.177C403.061 527.381 402.845 527.598 402.618 527.828C400.715 529.746 398.007 532.477 394.987 534.832C393.275 536.168 391.611 537.261 390.099 537.974C388.616 538.674 387.609 538.85 387.012 538.823C386.597 538.755 385.896 538.476 384.912 537.408C383.844 536.247 382.709 534.43 381.586 531.9C379.341 526.842 377.569 519.929 376.205 512.52C373.847 499.71 372.873 486.411 372.452 480.66C372.392 479.841 372.343 479.175 372.304 478.685C369.387 411.818 382.074 309.42 392.789 230.584C399.239 229.25 405.833 227.844 412.54 226.415C463.676 215.515 521.405 203.21 572.419 210.352L572.539 210.368L572.66 210.379C575.58 210.645 578.396 209.786 580.389 207.646C582.278 205.619 582.895 203.013 582.753 200.738C582.471 196.222 579.065 191.417 573.049 190.828C518.256 184.203 456.094 197.136 403.66 208.044C400.694 208.661 397.759 209.272 394.858 209.872C395.196 207.561 395.579 204.979 395.994 202.183C396.253 200.443 396.523 198.62 396.803 196.728C398.06 188.219 399.49 178.38 400.77 168.626C402.049 158.881 403.186 149.168 403.853 140.918C404.503 132.856 404.758 125.639 404.05 121.21L404.044 121.177L404.039 121.143C403.09 115.687 399.415 112.157 395.249 110.219C391.195 108.334 386.417 107.784 382.042 108.087C377.668 108.39 373.155 109.584 369.607 111.732C366.126 113.84 362.624 117.548 362.92 122.877L362.944 123.306L363.041 123.724C363.752 126.806 363.828 133.037 363.261 141.649C362.708 150.036 361.599 160.061 360.255 170.326C357.834 188.819 354.683 207.879 352.767 219.144C324.714 224.493 298.723 228.282 276.1 228C252.649 227.708 233.463 223.044 219.419 211.843C217.455 209.992 214.936 209.038 212.308 209.315C209.69 209.59 207.516 211.029 206.113 212.9C203.12 216.89 203.5 222.658 207.777 226.936L207.921 227.08L208.076 227.211C225.198 241.749 247.662 247.286 272.856 247.824C296.1 248.32 322.174 244.568 349.456 239.259C344.524 277.367 339.402 320.352 335.848 361.95C316.948 370.109 303.321 376.312 290.609 383.614C277.414 391.195 265.305 399.899 249.288 413.07C242.14 399.937 234.606 385.895 231.064 372.833C226.372 350.467 227.233 335.033 231.919 325.14L232.02 324.926L232.101 324.702C237.813 308.927 249.196 302.153 259.98 303.225C270.94 304.315 283.648 313.736 291.065 335.406C291.546 336.832 292.429 337.938 293.131 338.669C293.895 339.466 294.788 340.17 295.7 340.74C296.603 341.304 297.676 341.831 298.834 342.157C299.9 342.457 301.588 342.741 303.381 342.143L303.718 342.031L304.036 341.872C306.024 340.878 307.853 339.311 308.792 336.87C309.659 334.615 309.483 332.319 309.103 330.419ZM231.506 459.044C242.132 477.566 251.064 493.427 253.635 509.614C255.314 528.505 249.4 538.269 243.814 541.103C235.683 544.902 227.425 543.118 220.736 537.439C213.95 531.677 208.969 521.961 208.4 510.681C208.443 494.941 217.022 477.659 231.506 459.044Z" stroke="white" stroke-width="10" class="vRQVzEZN_1"></path>
<defs>
<linearGradient id="paint0_linear" x1="0" y1="350.5" x2="701" y2="350.5" gradientUnits="userSpaceOnUse">
<stop stop-color="#BDC2E8"></stop>
<stop offset="0.01" stop-color="#BDC2E8"></stop>
<stop offset="1" stop-color="#E6DEE9"></stop>
</linearGradient>
</defs>
<style data-made-with="vivus-instant">.vRQVzEZN_0{stroke-dasharray:2203 2205;stroke-dashoffset:2204;animation:vRQVzEZN_draw 2000ms linear 0ms forwards;}.vRQVzEZN_1{stroke-dasharray:3294 3296;stroke-dashoffset:3295;animation:vRQVzEZN_draw 2000ms linear 1000ms forwards;}@keyframes vRQVzEZN_draw{100%{stroke-dashoffset:0;}}@keyframes vRQVzEZN_fade{0%{stroke-opacity:1;}94.44444444444444%{stroke-opacity:1;}100%{stroke-opacity:0;}}</style></svg>
